<svg width="138" height="132" viewBox="0 0 138 132" fill="none" xmlns="http://www.w3.org/2000/svg">
<path d="M41.0319 24.8329C42.0232 24.1948 42.9908 23.5155 44.0102 22.9244C48.2974 20.4419 52.8906 18.7164 57.7089 17.6213C63.2239 16.368 68.8062 16.1026 74.4239 16.8069C80.6195 17.5838 86.4642 19.4714 91.9521 22.4588C96.708 25.0478 100.92 28.3439 104.602 32.3175C104.851 32.5858 105.207 32.8041 105.025 33.3098C104.951 33.5168 105.108 33.8082 105.17 34.1135C105.437 34.0091 105.658 33.9231 105.956 33.8065C106.852 34.9617 107.758 36.1261 108.711 37.3549C108.052 37.5653 107.504 37.7714 106.939 37.8995C106.793 37.933 106.542 37.7666 106.424 37.6223C105.243 36.183 104.146 34.6679 102.891 33.2986C101.815 32.1245 100.592 31.0782 99.3859 30.0315C93.6883 25.0862 87.1721 21.6988 79.8667 19.8503C74.1295 18.3997 68.3224 18.0619 62.4505 18.8078C59.2273 19.2172 56.1044 20.0147 53.0125 20.9988C50.957 21.653 49.0128 22.5514 47.1145 23.5303C45.2134 24.5114 43.3514 25.6002 41.5938 26.8188C39.8228 28.0476 38.1537 29.439 36.5251 30.8568C34.3346 32.766 32.4479 34.9674 30.684 37.2784C29.5122 38.8134 28.4747 40.4341 27.5342 42.113C27.2182 42.6782 26.9004 42.9928 26.2412 42.826C26.1377 42.7995 26.0208 42.8238 25.8811 42.8256C25.6628 43.3584 26.0381 43.7635 26.1419 44.2148C26.1712 44.3436 26.2162 44.503 26.1669 44.6092C25.7246 45.5862 25.2626 46.5539 24.7814 47.5803C24.3117 47.3148 23.9867 47.6067 23.8683 47.9874C23.8118 48.1674 24.125 48.4637 24.3258 48.7984C23.2241 51.7133 22.2939 54.8377 21.8477 58.0789C21.5634 60.1459 21.4264 62.2348 21.2375 64.3141C21.207 64.6536 21.0255 64.833 20.838 65.0941C20.4215 65.6759 19.7874 65.569 19.2135 65.9594C19.2371 64.9769 19.2374 64.0852 19.2845 63.1952C19.6436 56.464 21.2971 50.0694 24.2545 44.0153C26.3863 39.65 29.1096 35.6933 32.4027 32.1296C32.5783 31.939 32.7753 31.7487 32.9998 31.6258C33.4408 31.3849 33.9743 31.2549 33.9255 30.5777C33.9206 30.5138 34.0411 30.4372 34.1081 30.3718C36.1646 28.378 38.3752 26.5731 40.7397 24.9559C40.8314 24.8933 40.9417 24.8557 41.0426 24.8068C41.0305 24.8583 41.0123 24.9093 41.0078 24.962C40.9902 25.1414 40.9773 25.3205 40.9623 25.5003C41.1364 25.4911 41.3577 25.5442 41.474 25.4583C41.642 25.3332 41.7331 25.1053 41.8574 24.9215C41.7209 24.8401 41.5896 24.7118 41.4456 24.6924C41.3144 24.6759 41.1685 24.7809 41.0287 24.8303L41.0319 24.8329ZM36.3978 30.3618C36.7043 29.8782 37.0179 29.3982 37.297 28.8996C37.3139 28.8704 37.0537 28.5916 36.9184 28.5884C36.5377 28.5791 35.747 29.3768 35.6869 29.7651C35.6174 30.217 35.8395 30.4139 36.3978 30.3618ZM44.4759 23.7387C45.1666 23.9633 45.7515 23.8193 46.0187 23.2983C46.1162 23.1088 46.107 22.7713 45.9966 22.597C45.9214 22.4806 45.5612 22.4611 45.3668 22.522C44.813 22.6965 44.5692 23.1494 44.4759 23.7387ZM19.9717 62.5459C20.5987 62.5932 20.9808 62.3462 20.9154 61.885C20.8901 61.7014 20.6286 61.4445 20.4414 61.4126C20.1349 61.3605 19.8987 61.9526 19.9717 62.5459ZM55.5675 19.6767C55.6748 19.4139 55.7864 19.2461 55.791 19.0744C55.7924 19.012 55.4861 18.8527 55.4097 18.8962C55.2587 18.9813 55.1704 19.1774 55.0566 19.3268C55.195 19.4219 55.3335 19.5169 55.5675 19.6767Z" fill="white"/>
<path d="M68.1334 115.009C68.3319 114.727 68.4945 114.54 68.6038 114.325C68.6812 114.172 68.6838 113.984 68.7202 113.811C68.5098 113.77 68.2534 113.633 68.0989 113.707C67.8069 113.849 67.5185 114.074 67.3264 114.335C66.9312 114.872 66.4677 115.016 65.7991 114.976C59.3507 114.591 53.2072 113.021 47.3727 110.251C43.9555 108.628 40.7603 106.64 37.8071 104.268C37.7496 104.223 37.6987 104.167 37.675 104.145C38.1093 103.664 38.5352 103.193 38.9332 102.75C40.5134 103.822 42.1368 105.017 43.8498 106.066C51.5427 110.771 59.9096 113.086 68.9212 113.046C69.5037 113.043 70.0871 112.995 70.6691 112.998C71.0178 113 71.3981 112.807 71.6386 113.355C71.7623 113.638 72.1509 113.441 72.3841 113.186C72.523 113.033 72.734 112.872 72.9272 112.852C76.5956 112.479 80.1757 111.714 83.6732 110.545C83.8834 110.475 84.1554 110.541 84.3879 110.592C84.7824 110.678 85.0856 110.653 85.1982 110.183C85.2223 110.084 85.3229 109.967 85.4175 109.925C86.4159 109.484 87.4205 109.054 88.4247 108.628C88.524 108.585 88.6567 108.539 88.7465 108.571C89.1133 108.704 89.2473 108.517 89.4571 108.241C89.6572 107.978 90.0297 107.835 90.3424 107.672C95.3732 105.063 99.7744 101.639 103.557 97.4194C108.824 91.5417 112.388 84.7534 114.317 77.0996C114.542 76.2051 114.719 75.2995 114.929 74.3528C115.388 74.4478 115.714 74.2319 115.705 73.7703C115.701 73.5681 115.408 73.3713 115.228 73.1513C115.376 70.9922 115.527 68.7216 115.699 66.4535C115.71 66.3167 115.873 66.1288 116.009 66.0761C116.516 65.8806 117.042 65.7329 117.681 65.5287C117.656 66.5998 117.633 67.5977 117.609 68.634C117.288 68.6376 117.016 68.6412 116.69 68.6441C116.678 69.2503 116.789 69.753 117.235 70.1687C117.354 70.2796 117.436 70.5105 117.42 70.6763C116.964 75.3778 115.837 79.9163 114.062 84.2889C111.72 90.062 108.408 95.215 104.124 99.7345C100.588 103.464 96.5979 106.621 92.0353 108.989C89.7515 110.174 87.3491 111.13 84.9985 112.184C84.8114 112.268 84.6071 112.313 84.4163 112.373C83.9301 111.666 83.8138 111.689 83.2591 112.362C83.0255 112.646 82.6927 112.932 82.3511 113.031C77.8076 114.35 73.1701 115.055 68.4313 115.034C68.3623 115.034 68.2933 115.022 68.1306 115.008L68.1334 115.009ZM110.847 88.3693C111.518 88.3942 111.862 88.1668 111.787 87.6857C111.759 87.4996 111.493 87.2465 111.301 87.2124C111.009 87.1616 110.764 87.8042 110.847 88.3693ZM113.268 81.7058C113.141 82.1498 113.033 82.4119 113.011 82.682C113.005 82.7576 113.363 82.9408 113.374 82.9291C113.571 82.6815 113.755 82.4182 113.899 82.1375C113.91 82.1162 113.602 81.9325 113.268 81.7069L113.268 81.7058ZM64.8571 113.433C64.4349 113.566 64.0786 113.726 64.1164 114.216C64.1194 114.259 64.5125 114.352 64.6718 114.289C65.0574 114.135 65.2418 113.86 64.8571 113.433ZM95.7044 105.151L95.8355 105.409C96.0975 105.355 96.3606 105.301 96.6225 105.247L96.4429 104.436C96.3782 104.423 96.3129 104.412 96.2482 104.399C96.0669 104.65 95.8853 104.899 95.704 105.15L95.7044 105.151Z" fill="white"/>
<path d="M44.5222 90.9941L43.9242 89.1221C44.1271 89.0466 44.3109 88.9676 44.5007 88.907C63.4646 82.8482 82.4307 76.7923 101.391 70.7206C101.933 70.5474 102.1 70.6844 102.245 71.1893C102.601 72.435 102.626 72.4343 101.391 72.8286C85.5891 77.8763 69.7871 82.9214 53.9845 87.968C51.0607 88.902 48.1377 89.838 45.2143 90.773C45.003 90.8405 44.7917 90.908 44.5222 90.9941ZM64.4544 84.5522C65.011 83.7281 64.9934 83.4575 64.3743 82.9326C63.7042 83.4979 63.7235 84.1012 64.4544 84.5522ZM53.7967 87.5626C54.0982 87.2567 54.5747 87.0783 54.3191 86.5683C54.273 86.4759 53.7934 86.4625 53.6667 86.5791C53.3536 86.8672 53.3755 87.2257 53.7967 87.5626ZM58.7545 85.4051C58.8186 85.4049 58.8823 85.4036 58.9464 85.4034C58.9681 85.2297 59.0696 84.9783 58.9925 84.9005C58.8765 84.7828 58.6384 84.7851 58.4521 84.7375C58.4268 84.7884 58.4015 84.8393 58.3776 84.891C58.5037 85.0626 58.6284 85.2335 58.7545 85.4051Z" fill="white"/>
<path d="M93.0183 42.3433L34.9395 60.8952L34.3585 59.0761C34.5455 59.0069 34.7455 58.9227 34.9514 58.857C48.7492 54.4519 62.5488 50.0488 76.3463 45.6427C81.4951 43.998 86.6457 42.3551 91.7873 40.6877C92.3149 40.5168 92.5356 40.6237 92.6456 41.1505C92.7252 41.5334 92.8772 41.9015 93.0183 42.3433ZM76.4976 46.6371C76.667 46.3307 76.7772 46.1288 76.8888 45.9277C76.7327 45.8632 76.5174 45.7023 76.4308 45.7549C76.2347 45.8735 76.1006 46.0973 75.942 46.2777C76.0905 46.3743 76.239 46.4709 76.4969 46.6386L76.4976 46.6371Z" fill="white"/>
<path d="M42.793 42.0061L47.2426 48.418L47.3231 48.3922L47.2141 40.5884L49.8393 39.7465L49.6769 50.5012L46.5542 51.5025L40.1678 42.8479L42.793 42.0061ZM54.0304 38.4026L57.1424 48.1072L54.7968 48.8594L51.6848 39.1547L54.0304 38.4026ZM62.4821 38.901C62.3391 38.5636 62.1119 38.3386 61.8005 38.2259C61.4913 38.1091 61.1077 38.1241 60.6496 38.271C60.3463 38.3683 60.1063 38.4888 59.9294 38.6326C59.7526 38.7764 59.6359 38.934 59.5794 39.1054C59.5218 39.2737 59.5199 39.4468 59.5734 39.6247C59.6137 39.772 59.6832 39.8909 59.7818 39.9812C59.8836 40.0705 60.0098 40.138 60.1603 40.1838C60.313 40.2254 60.488 40.2494 60.6851 40.2559C60.8823 40.2623 61.0991 40.2538 61.3354 40.2303L62.2302 40.1524C62.7438 40.1026 63.2116 40.1059 63.6338 40.1621C64.0591 40.2174 64.4351 40.325 64.7616 40.4851C65.0913 40.6441 65.3711 40.8592 65.6009 41.1304C65.8307 41.4017 66.0095 41.731 66.1373 42.1186C66.3306 42.7325 66.3445 43.3081 66.1789 43.8454C66.0133 44.3828 65.6805 44.8606 65.1805 45.2787C64.6837 45.6958 64.0309 46.0341 63.2222 46.2934C62.4103 46.5538 61.6637 46.6591 60.9823 46.6093C60.3009 46.5595 59.7133 46.3404 59.2194 45.9518C58.7255 45.5632 58.3522 44.9913 58.0996 44.2362L60.3457 43.5159C60.4649 43.8226 60.6322 44.0564 60.8476 44.2173C61.0629 44.3781 61.3173 44.4708 61.6108 44.4951C61.9074 44.5184 62.2279 44.4749 62.5723 44.3645C62.8882 44.2631 63.143 44.1344 63.3368 43.9782C63.5337 43.821 63.6679 43.6473 63.7393 43.4572C63.8108 43.267 63.8166 43.0735 63.757 42.8767C63.6951 42.6944 63.5881 42.5563 63.436 42.4622C63.2829 42.365 63.0758 42.306 62.8148 42.2852C62.5559 42.2602 62.2364 42.2633 61.8563 42.2947L60.7663 42.3829C59.8642 42.4597 59.1025 42.3608 58.4814 42.0861C57.8593 41.8083 57.4318 41.3009 57.1989 40.5638C57.0033 39.9646 56.9958 39.387 57.1763 38.8309C57.3568 38.2748 57.694 37.7782 58.1879 37.3411C58.6818 36.904 59.2968 36.5674 60.0329 36.3314C60.7847 36.0903 61.4781 36.0091 62.113 36.0877C62.75 36.1621 63.2952 36.3792 63.7485 36.739C64.2018 37.0988 64.5284 37.5794 64.7282 38.1807L62.4821 38.901ZM70.8246 43.7196L68.3037 44.528L68.466 33.7734L71.5888 32.772L77.9751 41.4266L75.4542 42.235L70.847 35.7064L70.7712 35.7308L70.8246 43.7196ZM69.2634 40.0082L74.5327 38.3185L75.1041 40.1002L69.8348 41.7899L69.2634 40.0082Z" fill="white"/>
<path d="M108.425 79.7599L108.679 80.5528C108.822 80.5393 108.964 80.5261 109.134 80.5111C109.125 80.5852 109.13 80.6609 109.107 80.7244C108.084 83.5307 106.776 86.1973 105.198 88.7287C103.597 91.2961 101.761 93.6846 99.6562 95.8606C99.3158 96.2122 98.9737 96.5619 98.6153 96.8943C98.32 97.1672 98.1078 97.548 97.5477 97.4162C97.3499 97.3699 96.9461 97.6977 96.8146 97.948C95.7729 99.9498 93.8004 100.879 92.0896 102.102C91.6119 102.444 91.0304 102.636 90.5192 102.936C89.783 103.369 89.0934 103.888 88.338 104.283C85.4745 105.781 82.4775 106.947 79.3376 107.721C78.0523 108.038 76.7575 108.332 75.4508 108.545C74.0965 108.764 72.7278 108.924 71.3596 109.015C70.0103 109.105 68.6512 109.124 67.2992 109.087C65.9475 109.051 64.5911 108.966 63.2485 108.799C57.6944 108.107 52.4577 106.416 47.5529 103.699C44.5895 102.058 41.842 100.114 39.3504 97.815C39.1196 97.6018 38.9365 97.2853 38.8485 96.9837C38.7484 96.6407 38.5764 96.5003 38.2482 96.41C37.9617 96.3313 37.6407 96.2005 37.4463 95.9899C36.3395 94.79 35.2656 93.5592 34.1699 92.3272C35.0007 91.7963 35.0978 91.8141 35.6187 92.4441C42.1189 100.308 50.3566 105.291 60.3423 107.31C67.8793 108.835 75.3041 108.271 82.5381 105.708C90.9024 102.745 97.6862 97.6232 102.883 90.4075C103.162 90.0182 103.545 89.6973 103.79 89.2903C104.358 88.3458 104.92 87.3926 105.394 86.3996C106.368 84.3622 107.284 82.2971 108.222 80.2427C108.275 80.1258 108.321 80.0052 108.423 79.7585L108.425 79.7599Z" fill="white"/>
<path d="M82.5106 97.2757C81.2955 97.0496 80.2196 96.8766 79.1589 96.6392C78.6112 96.5165 78.2155 96.587 77.8236 97.03C77.0902 97.8583 76.2938 98.6306 75.4239 99.5299C75.3495 99.0441 75.2845 98.6732 75.2388 98.2997C75.1328 97.4396 75.0554 96.5762 74.9235 95.7208C74.8967 95.5436 74.7131 95.3297 74.5458 95.245C73.5189 94.7302 72.4764 94.2489 71.4392 93.7541C71.3605 93.7161 71.2881 93.6642 71.1232 93.5646C72.2378 93.0443 73.2588 92.5324 74.3097 92.092C74.7907 91.8907 74.9871 91.6089 75.0451 91.0987C75.1709 89.9788 75.3632 88.8663 75.5455 87.6366C76.2166 88.3353 76.8284 88.9601 77.4261 89.5965C78.4558 90.6926 78.4512 90.6893 79.9127 90.3998C80.7721 90.2301 81.6373 90.0858 82.63 89.9057C82.0115 91.0008 81.4727 91.9883 80.8991 92.9561C80.6507 93.3759 80.5657 93.7125 80.8634 94.1794C81.3574 94.956 81.7537 95.7949 82.1874 96.6099C82.2827 96.789 82.3657 96.9744 82.5113 97.2743L82.5106 97.2757ZM79.9918 93.1245C80.164 92.823 80.281 92.6166 80.3991 92.4099C80.2202 92.348 79.993 92.1872 79.8756 92.2473C79.6912 92.3396 79.5816 92.5805 79.4402 92.759C79.5922 92.8593 79.7432 92.9599 79.9932 93.1252L79.9918 93.1245Z" fill="white"/>
<path d="M102.671 39.2412C101.772 39.6309 101.777 39.6271 101.215 38.9434C100.869 38.5219 100.515 38.1038 100.15 37.6992C99.8073 37.3193 99.3854 36.9802 99.8423 36.2236C98.8743 36.6078 98.5629 35.949 98.1132 35.5379C97.0845 34.5975 96.0515 33.662 95.0971 32.7943C95.0787 32.4799 95.0635 32.2205 95.048 31.96C94.7914 31.986 94.5351 32.0131 94.1806 32.049C92.9855 31.2569 91.6919 30.3464 90.3479 29.5198C86.1173 26.9165 81.5578 25.1171 76.683 24.1981C74.5821 23.8026 72.4353 23.6539 70.3072 23.4075C69.9422 23.3657 69.5763 23.3993 69.5963 22.8596C69.5994 22.78 69.4376 22.6936 69.3516 22.6104C69.2767 22.7033 69.1712 22.7858 69.1363 22.8922C69.0958 23.0111 69.1192 23.1512 69.112 23.3631C68.4343 23.2462 67.7174 23.624 67.2123 23.1473C66.7954 23.2519 66.4668 23.3759 66.1291 23.4124C64.4161 23.5988 62.7008 23.7634 60.9933 23.9338C61.0066 23.6594 61.0225 23.3519 61.0381 23.0362C76.3009 20.0858 93.1824 26.5882 102.671 39.2412Z" fill="white"/>
<path d="M68.1923 95.5778C67.6343 96.587 67.1696 97.4902 66.6395 98.3524C66.4117 98.7215 66.4607 98.994 66.6489 99.3303C67.1321 100.2 67.5963 101.08 68.1254 102.063C67.2406 101.904 66.4363 101.837 65.6834 101.604C64.7736 101.322 64.1433 101.521 63.5622 102.276C63.076 102.907 62.4515 103.433 61.8292 104.066C61.7026 103.015 61.5731 102.048 61.4795 101.078C61.4645 100.92 61.6499 100.749 61.6598 100.579C61.6744 100.316 61.6174 100.048 61.5909 99.7829C61.3863 99.8304 61.1827 99.8847 60.9764 99.9232C60.816 99.953 60.6232 100.026 60.4936 99.9703C59.7037 99.625 58.9282 99.2465 58.0254 98.823C58.8074 98.4518 59.4658 98.0546 60.1792 97.822C61.1575 97.5035 61.6211 96.9281 61.6383 95.8845C61.65 95.1772 61.8324 94.4726 61.9386 93.7672C61.9405 93.7511 61.9586 93.737 62.0318 93.6315C62.6046 94.4092 63.5 94.847 63.8296 95.8453C63.8963 96.0466 64.5243 96.19 64.8688 96.149C65.9475 96.0187 67.0145 95.7886 68.1934 95.5775L68.1923 95.5778Z" fill="white"/>
<path d="M85.981 89.8711C87.0711 89.3598 88.0303 88.9332 88.9635 88.4553C89.171 88.3498 89.3671 88.086 89.4271 87.8573C89.5512 87.3867 89.5365 86.8795 89.6596 86.4092C89.7822 85.9415 90.0048 85.5002 90.2223 84.9498C90.9323 85.6849 91.5386 86.3483 92.1903 86.9639C92.3574 87.1224 92.6787 87.2281 92.906 87.196C93.9456 87.0473 94.9776 86.8414 96.1529 86.6303C95.5558 87.7031 95.0249 88.6631 94.4811 89.6166C94.4431 89.6835 94.3081 89.7219 94.2164 89.725C93.5248 89.7506 93.3436 90.0835 93.7017 90.7322C93.9619 90.5574 94.2196 90.3822 94.5119 90.1853C95.0312 91.1563 95.5277 92.0822 96.0792 93.1131C95.2112 92.9583 94.4068 92.895 93.6561 92.661C92.7445 92.3772 92.1073 92.5843 91.5224 93.3271C91.0382 93.9424 90.4348 94.4637 89.8854 95.0273C89.8254 95.0179 89.7643 95.0089 89.7042 94.9995C89.7051 94.329 89.711 93.6593 89.7022 92.9883C89.7001 92.8592 89.6534 92.7277 89.608 92.6041C89.5595 92.4708 89.4321 92.3436 89.4372 92.2182C89.463 91.6147 89.1557 91.326 88.6182 91.1084C87.7671 90.7648 86.9525 90.331 85.9818 89.8697L85.981 89.8711Z" fill="white"/>
<path d="M28.3317 52.076C28.1969 51.8215 28.0789 51.5973 27.9596 51.3723C27.8695 51.6035 27.7975 51.8431 27.6832 52.0618C27.5916 52.2363 27.4484 52.3832 27.2049 52.4836C27.3793 51.966 27.5445 51.4454 27.73 50.9326C29.1912 46.9005 31.2052 43.1668 33.7605 39.7256C33.9613 39.4543 34.1489 39.279 34.5256 39.2979C34.9699 39.3203 35.3965 39.2126 35.5739 38.6261C35.3778 38.5364 35.1691 38.4412 34.8672 38.3031C41.5323 30.2398 49.9918 25.2496 60.225 23.1903C59.8916 23.7384 59.665 24.3048 58.8782 24.4824C52.4107 25.934 46.632 28.8167 41.5173 33.023C37.7912 36.087 34.6972 39.705 32.2002 43.8382C32.0596 44.0712 31.8013 44.237 31.5833 44.4174C31.3012 44.6503 31.0156 44.857 31.2391 45.2999C31.287 45.3941 31.2151 45.5707 31.1596 45.6908C30.477 47.1802 29.8637 48.7082 29.0655 50.1334C28.7107 50.7669 28.7831 51.5104 28.3345 52.0775L28.3317 52.076Z" fill="white"/>
<path d="M37.8935 101.798C37.481 102.314 37.087 102.807 36.6647 103.333C33.5096 100.66 30.7033 97.6176 28.2276 94.1074C28.8691 93.9025 29.4439 93.7046 30.0286 93.5452C30.1281 93.5182 30.3169 93.6222 30.3888 93.7206C32.5662 96.7214 35.1155 99.376 37.8983 101.813C37.9114 101.824 37.9158 101.846 37.8909 101.798L37.8935 101.798Z" fill="white"/>
<path d="M111.824 67.4163C111.612 69.2518 111.428 70.9508 111.213 72.6446C111.122 73.3534 110.979 74.0561 110.819 74.7535C110.76 75.0116 110.579 75.2387 110.468 75.4861C110.402 75.6322 110.292 75.8101 110.326 75.941C110.521 76.7023 110.297 77.2788 109.751 77.8388C109.298 78.3037 108.978 78.8975 108.506 79.5661C108.823 78.4577 109.11 77.5005 109.372 76.5362C110.102 73.8387 110.554 71.0909 110.675 68.2997C110.708 67.5583 111.213 67.627 111.825 67.416L111.824 67.4163Z" fill="white"/>
<path d="M26.9691 53.2255C27.4851 53.9559 27.6479 53.2456 28.0524 53.0354C27.9086 53.5373 27.7857 53.9634 27.6647 54.3842C27.4535 54.4148 27.2595 54.4434 26.9084 54.4936C27.6701 55.0967 27.3028 55.7283 27.1776 56.3481C27.0357 57.0493 27.0078 57.7987 26.7305 58.4408C26.422 59.156 26.5723 59.8758 26.4518 60.5846C26.3269 61.3244 26.2931 62.0816 26.2383 62.8324C26.1706 63.7695 26.1799 63.7689 25.1741 63.9938C25.3067 60.3361 25.9098 56.7864 26.9676 53.2248L26.9691 53.2255Z" fill="white"/>
<path d="M24.0697 86.754L20.6472 87.8472L20.884 73.2519L25.1235 71.8977L33.7774 83.653L30.355 84.7463L24.1124 75.8789L24.0094 75.9118L24.0697 86.754ZM21.9566 81.7147L29.1104 79.4295L29.883 81.8484L22.7293 84.1336L21.9566 81.7147ZM35.196 83.1999L30.9874 70.0246L36.43 68.2861C37.4164 67.971 38.3294 67.8921 39.1689 68.0493C40.0114 68.2008 40.7373 68.5574 41.3468 69.1189C41.9549 69.6762 42.4035 70.4073 42.6926 71.3122C42.983 72.2215 43.0377 73.0808 42.8567 73.8901C42.6785 74.6938 42.2824 75.3993 41.6682 76.0067C41.054 76.6141 40.2429 77.0787 39.2351 77.4007L35.8769 78.4734L35.0755 75.9644L37.8418 75.0808C38.3221 74.9273 38.6964 74.7156 38.9646 74.4456C39.2372 74.1742 39.4091 73.8617 39.4805 73.5081C39.5505 73.1501 39.5211 72.7696 39.3923 72.3664C39.2622 71.959 39.0662 71.634 38.8044 71.3915C38.5412 71.1447 38.2206 70.9919 37.8426 70.933C37.4646 70.8742 37.0376 70.9208 36.5615 71.0729L34.9918 71.5743L38.3804 82.1827L35.196 83.1999ZM47.0139 79.425L42.8053 66.2497L48.2478 64.5112C49.2343 64.1961 50.1473 64.1171 50.9868 64.2743C51.8292 64.4259 52.5552 64.7824 53.1647 65.344C53.7728 65.9012 54.2214 66.6323 54.5104 67.5373C54.8009 68.4465 54.8556 69.3058 54.6745 70.1151C54.4964 70.9188 54.1003 71.6243 53.4861 72.2317C52.8719 72.8391 52.0608 73.3038 51.0529 73.6257L47.6948 74.6984L46.8934 72.1895L49.6596 71.3058C50.14 71.1524 50.5143 70.9407 50.7825 70.6706C51.055 70.3993 51.227 70.0868 51.2984 69.7331C51.3684 69.3752 51.339 68.9946 51.2102 68.5915C51.08 68.184 50.8841 67.8591 50.6223 67.6166C50.3591 67.3698 50.0385 67.217 49.6605 67.1581C49.2825 67.0992 48.8555 67.1458 48.3794 67.2979L46.8097 67.7993L50.1983 78.4077L47.0139 79.425ZM58.8317 75.65L54.6232 62.4747L60.0657 60.7362C61.0522 60.4211 61.9603 60.3272 62.7903 60.4543C63.6232 60.5759 64.3402 60.9045 64.9415 61.4404C65.5414 61.9719 65.9852 62.688 66.2728 63.5886C66.5647 64.5022 66.6132 65.3421 66.4184 66.1086C66.2223 66.8707 65.811 67.5362 65.1845 68.105C64.5566 68.6695 63.7408 69.112 62.7373 69.4326L59.2955 70.532L58.494 68.0231L61.344 67.1127C61.8243 66.9593 62.2055 66.769 62.4874 66.5419C62.7722 66.3091 62.9572 66.0373 63.0423 65.7266C63.126 65.4115 63.1027 65.0503 62.9726 64.6428C62.8424 64.2354 62.6513 63.9254 62.3991 63.7129C62.1455 63.4962 61.8345 63.3734 61.4661 63.3445C61.0963 63.3114 60.6734 63.3709 60.1973 63.523L58.6276 64.0244L62.0162 74.6328L58.8317 75.65ZM64.3258 67.2591L69.5302 72.2326L66.0563 73.3423L60.9162 68.3482L64.3258 67.2591ZM81.1577 61.2587C81.6208 62.7083 81.7345 64.0261 81.4989 65.2121C81.2633 66.398 80.753 67.4047 79.968 68.2321C79.1873 69.0581 78.2073 69.6594 77.0278 70.0362C75.8441 70.4143 74.6941 70.491 73.5778 70.2662C72.4614 70.0414 71.4642 69.5163 70.5861 68.6908C69.7109 67.8597 69.0424 66.7214 68.5807 65.2761C68.1177 63.8265 68.0018 62.5094 68.2331 61.3247C68.4687 60.1388 68.9769 59.1328 69.7576 58.3068C70.5383 57.4808 71.5205 56.8787 72.7042 56.5006C73.8836 56.1239 75.0308 56.0457 76.1458 56.2662C77.2651 56.4853 78.2644 57.0098 79.1439 57.8395C80.0234 58.6693 80.6947 59.809 81.1577 61.2587ZM77.9025 62.2985C77.6285 61.4407 77.2748 60.7549 76.8412 60.2412C76.412 59.726 75.9215 59.3888 75.3696 59.2295C74.822 59.0688 74.2308 59.0899 73.5961 59.2927C72.9656 59.494 72.4717 59.8196 72.1144 60.2693C71.757 60.719 71.5506 61.2789 71.4952 61.9488C71.4441 62.6174 71.5555 63.3806 71.8295 64.2383C72.1035 65.0961 72.4551 65.7826 72.8844 66.2977C73.3179 66.8115 73.8106 67.148 74.3625 67.3073C74.9144 67.4666 75.5055 67.4455 76.136 67.2442C76.7707 67.0414 77.2646 66.7158 77.6177 66.2675C77.975 65.8178 78.1793 65.2586 78.2304 64.59C78.2858 63.9201 78.1765 63.1562 77.9025 62.2985ZM83.1257 53.3702L89.1546 62.0789L89.264 62.044L89.128 51.4529L92.692 50.3145L92.4551 64.9098L88.2156 66.264L79.5617 54.5087L83.1257 53.3702ZM98.319 63.0367L94.1105 49.8614L103.297 46.9269L104.123 49.5131L98.121 51.4303L98.9841 54.1323L104.517 52.3651L105.345 54.9577L99.8123 56.7249L100.677 59.4333L106.68 57.516L107.506 60.1022L98.319 63.0367ZM114.37 57.9096L109.5 59.4652L105.291 46.2899L110.155 44.7363C111.497 44.3075 112.738 44.2021 113.875 44.42C115.016 44.6322 116.008 45.1473 116.85 45.9653C117.692 46.7789 118.331 47.8698 118.768 49.2379C119.206 50.6104 119.319 51.874 119.107 53.029C118.898 54.1825 118.392 55.1786 117.587 56.0171C116.78 56.8513 115.708 57.4821 114.37 57.9096ZM111.817 55.7331L113.381 55.2338C114.118 54.9981 114.703 54.6744 115.133 54.2627C115.567 53.8452 115.825 53.3117 115.905 52.662C115.989 52.0066 115.88 51.205 115.577 50.2572C115.274 49.3094 114.9 48.597 114.455 48.1201C114.008 47.6389 113.485 47.3568 112.887 47.2738C112.291 47.1852 111.616 47.2614 110.861 47.5025L109.343 47.9875L111.817 55.7331Z" fill="white"/>
</svg>