<svg width="20" height="20" viewBox="0 0 20 20" fill="none" xmlns="http://www.w3.org/2000/svg">
<path d="M4.43411 8.06902C6.4455 4.50991 7.4512 2.73035 8.83123 2.27226C9.59044 2.02025 10.4083 2.02025 11.1675 2.27226C12.5475 2.73035 13.5532 4.50991 15.5646 8.06902C17.576 11.6281 18.5817 13.4077 18.28 14.8577C18.114 15.6554 17.7051 16.379 17.1119 16.9247C16.0335 17.9166 14.0221 17.9166 9.99935 17.9166C5.97655 17.9166 3.96516 17.9166 2.88682 16.9247C2.29358 16.379 1.88467 15.6554 1.7187 14.8577C1.41701 13.4077 2.42271 11.6281 4.43411 8.06902Z" stroke="#EF4444" stroke-width="1.25"/>
<path d="M10.2015 14.1667V10.8333C10.2015 10.4405 10.2015 10.2441 10.0795 10.122C9.95742 10 9.761 10 9.36816 10" stroke="#EF4444" stroke-width="1.25" stroke-linecap="round" stroke-linejoin="round"/>
<path d="M9.993 7.5H10.0005" stroke="#EF4444" stroke-width="1.66667" stroke-linecap="round" stroke-linejoin="round"/>
</svg>
